<svg xmlns="http://www.w3.org/2000/svg" version="1.1" xmlns:xlink="http://www.w3.org/1999/xlink" xmlns:svgjs="http://svgjs.com/svgjs" width="1440" height="560" preserveAspectRatio="none" viewBox="0 0 1440 560"><g mask="url(&quot;#SvgjsMask1054&quot;)" fill="none"><rect width="1440" height="560" x="0" y="0" fill="rgba(125, 125, 255, 1)"></rect><path d="M239 455L238 119" stroke-width="6" stroke="url(#SvgjsLinearGradient1055)" stroke-linecap="round" class="Down"></path><path d="M655 263L654 -86" stroke-width="6" stroke="url(#SvgjsLinearGradient1056)" stroke-linecap="round" class="Up"></path><path d="M402 12L401 332" stroke-width="10" stroke="url(#SvgjsLinearGradient1057)" stroke-linecap="round" class="Up"></path><path d="M146 362L145 170" stroke-width="8" stroke="url(#SvgjsLinearGradient1057)" stroke-linecap="round" class="Up"></path><path d="M107 195L106 -102" stroke-width="10" stroke="url(#SvgjsLinearGradient1055)" stroke-linecap="round" class="Down"></path><path d="M964 529L963 386" stroke-width="6" stroke="url(#SvgjsLinearGradient1055)" stroke-linecap="round" class="Down"></path><path d="M1063 130L1062 -149" stroke-width="10" stroke="url(#SvgjsLinearGradient1058)" stroke-linecap="round" class="Down"></path><path d="M808 51L807 385" stroke-width="10" stroke="url(#SvgjsLinearGradient1057)" stroke-linecap="round" class="Up"></path><path d="M981 162L980 567" stroke-width="6" stroke="url(#SvgjsLinearGradient1058)" stroke-linecap="round" class="Down"></path><path d="M190 441L189 758" stroke-width="10" stroke="url(#SvgjsLinearGradient1058)" stroke-linecap="round" class="Down"></path><path d="M749 10L748 -214" stroke-width="10" stroke="url(#SvgjsLinearGradient1055)" stroke-linecap="round" class="Down"></path><path d="M878 511L877 813" stroke-width="6" stroke="url(#SvgjsLinearGradient1057)" stroke-linecap="round" class="Up"></path><path d="M895 243L894 504" stroke-width="6" stroke="url(#SvgjsLinearGradient1058)" stroke-linecap="round" class="Down"></path><path d="M778 512L777 116" stroke-width="10" stroke="url(#SvgjsLinearGradient1057)" stroke-linecap="round" class="Up"></path><path d="M517 525L516 760" stroke-width="10" stroke="url(#SvgjsLinearGradient1057)" stroke-linecap="round" class="Up"></path><path d="M1192 379L1191 223" stroke-width="10" stroke="url(#SvgjsLinearGradient1057)" stroke-linecap="round" class="Up"></path><path d="M667 78L666 -301" stroke-width="6" stroke="url(#SvgjsLinearGradient1055)" stroke-linecap="round" class="Down"></path><path d="M328 309L327 88" stroke-width="8" stroke="url(#SvgjsLinearGradient1057)" stroke-linecap="round" class="Up"></path><path d="M1045 389L1044 155" stroke-width="6" stroke="url(#SvgjsLinearGradient1057)" stroke-linecap="round" class="Up"></path><path d="M244 188L243 -9" stroke-width="8" stroke="url(#SvgjsLinearGradient1055)" stroke-linecap="round" class="Down"></path><path d="M708 227L707 539" stroke-width="8" stroke="url(#SvgjsLinearGradient1055)" stroke-linecap="round" class="Down"></path><path d="M985 459L984 76" stroke-width="6" stroke="url(#SvgjsLinearGradient1058)" stroke-linecap="round" class="Down"></path><path d="M1020 152L1019 -202" stroke-width="10" stroke="url(#SvgjsLinearGradient1057)" stroke-linecap="round" class="Up"></path><path d="M533 199L532 394" stroke-width="8" stroke="url(#SvgjsLinearGradient1056)" stroke-linecap="round" class="Up"></path><path d="M825 460L824 602" stroke-width="8" stroke="url(#SvgjsLinearGradient1057)" stroke-linecap="round" class="Up"></path><path d="M884 451L883 827" stroke-width="8" stroke="url(#SvgjsLinearGradient1057)" stroke-linecap="round" class="Up"></path><path d="M1261 556L1260 293" stroke-width="6" stroke="url(#SvgjsLinearGradient1055)" stroke-linecap="round" class="Down"></path><path d="M742 273L741 -125" stroke-width="8" stroke="url(#SvgjsLinearGradient1058)" stroke-linecap="round" class="Down"></path><path d="M587 423L586 156" stroke-width="10" stroke="url(#SvgjsLinearGradient1058)" stroke-linecap="round" class="Down"></path><path d="M377 181L376 366" stroke-width="8" stroke="url(#SvgjsLinearGradient1057)" stroke-linecap="round" class="Up"></path><path d="M613 132L612 422" stroke-width="8" stroke="url(#SvgjsLinearGradient1058)" stroke-linecap="round" class="Down"></path><path d="M625 492L624 645" stroke-width="6" stroke="url(#SvgjsLinearGradient1056)" stroke-linecap="round" class="Up"></path><path d="M73 460L72 144" stroke-width="6" stroke="url(#SvgjsLinearGradient1055)" stroke-linecap="round" class="Down"></path><path d="M1107 157L1106 -148" stroke-width="8" stroke="url(#SvgjsLinearGradient1055)" stroke-linecap="round" class="Down"></path><path d="M130 265L129 571" stroke-width="10" stroke="url(#SvgjsLinearGradient1058)" stroke-linecap="round" class="Down"></path><path d="M1425 554L1424 339" stroke-width="6" stroke="url(#SvgjsLinearGradient1058)" stroke-linecap="round" class="Down"></path></g><defs><mask id="SvgjsMask1054"><rect width="1440" height="560" fill="#ffffff"></rect></mask><linearGradient x1="0%" y1="0%" x2="0%" y2="100%" id="SvgjsLinearGradient1055"><stop stop-color="rgba(0, 1, 111, 0)" offset="0"></stop><stop stop-color="rgba(0, 1, 111, 1)" offset="1"></stop></linearGradient><linearGradient x1="0%" y1="100%" x2="0%" y2="0%" id="SvgjsLinearGradient1056"><stop stop-color="rgba(0, 21, 255, 0)" offset="0"></stop><stop stop-color="rgba(0, 21, 255, 1)" offset="1"></stop></linearGradient><linearGradient x1="0%" y1="100%" x2="0%" y2="0%" id="SvgjsLinearGradient1057"><stop stop-color="rgba(0, 1, 111, 0)" offset="0"></stop><stop stop-color="rgba(0, 1, 111, 1)" offset="1"></stop></linearGradient><linearGradient x1="0%" y1="0%" x2="0%" y2="100%" id="SvgjsLinearGradient1058"><stop stop-color="rgba(0, 21, 255, 0)" offset="0"></stop><stop stop-color="rgba(0, 21, 255, 1)" offset="1"></stop></linearGradient></defs></svg>