<svg xmlns="http://www.w3.org/2000/svg" version="1.1" xmlns:xlink="http://www.w3.org/1999/xlink" xmlns:svgjs="http://svgjs.com/svgjs" width="1440" height="250" preserveAspectRatio="none" viewBox="0 0 1440 250"><g mask="url(&quot;#SvgjsMask1006&quot;)" fill="none"><rect width="1440" height="250" x="0" y="0" fill="rgba(15, 5, 119, 1)"></rect><path d="M46 250L296 0L617 0L367 250z" fill="url(#SvgjsLinearGradient1007)"></path><path d="M249.60000000000002 250L499.6 0L678.1 0L428.1 250z" fill="url(#SvgjsLinearGradient1007)"></path><path d="M484.20000000000005 250L734.2 0L803.2 0L553.2 250z" fill="url(#SvgjsLinearGradient1007)"></path><path d="M714.8000000000001 250L964.8000000000001 0L1135.8000000000002 0L885.8000000000001 250z" fill="url(#SvgjsLinearGradient1007)"></path><path d="M1399 250L1149 0L1032 0L1282 250z" fill="url(#SvgjsLinearGradient1008)"></path><path d="M1199.4 250L949.4000000000001 0L694.4000000000001 0L944.4000000000001 250z" fill="url(#SvgjsLinearGradient1008)"></path><path d="M953.8 250L703.8 0L616.8 0L866.8 250z" fill="url(#SvgjsLinearGradient1008)"></path><path d="M718.1999999999999 250L468.19999999999993 0L181.69999999999993 0L431.69999999999993 250z" fill="url(#SvgjsLinearGradient1008)"></path><path d="M1214.024365307039 250L1440 24.02436530703909L1440 250z" fill="url(#SvgjsLinearGradient1007)"></path><path d="M0 250L225.9756346929609 250L 0 24.02436530703909z" fill="url(#SvgjsLinearGradient1008)"></path></g><defs><mask id="SvgjsMask1006"><rect width="1440" height="250" fill="#ffffff"></rect></mask><linearGradient x1="0%" y1="100%" x2="100%" y2="0%" id="SvgjsLinearGradient1007"><stop stop-color="rgba(15, 70, 185, 0.2)" offset="0"></stop><stop stop-opacity="0" stop-color="rgba(15, 70, 185, 0.2)" offset="0.66"></stop></linearGradient><linearGradient x1="100%" y1="100%" x2="0%" y2="0%" id="SvgjsLinearGradient1008"><stop stop-color="rgba(15, 70, 185, 0.2)" offset="0"></stop><stop stop-opacity="0" stop-color="rgba(15, 70, 185, 0.2)" offset="0.66"></stop></linearGradient></defs></svg>