<svg xmlns="http://www.w3.org/2000/svg" version="1.1" xmlns:xlink="http://www.w3.org/1999/xlink" xmlns:svgjs="http://svgjs.com/svgjs" width="1440" height="560" preserveAspectRatio="none" viewBox="0 0 1440 560"><g mask="url(&quot;#SvgjsMask1041&quot;)" fill="none"><rect width="1440" height="560" x="0" y="0" fill="rgba(255, 122, 0, 1)"></rect><path d="M0,550.719C120.866,565.044,251.105,615.34,357.694,556.582C465.076,497.387,500.866,363.381,546.381,249.524C589.956,140.521,635.559,27.17,615.572,-88.506C595.827,-202.782,505.873,-285.459,437.729,-379.295C362.628,-482.71,316.877,-625.876,195.739,-666.625C74.357,-707.456,-51.368,-628.482,-171.55,-584.245C-283.981,-542.862,-394.692,-499.773,-481.601,-417.31C-574.803,-328.875,-674.694,-226.465,-683.693,-98.3C-692.592,28.439,-597.349,134.708,-527.827,241.05C-467.562,333.232,-402.054,422.068,-307.062,477.798C-214.449,532.133,-106.629,538.082,0,550.719" fill="#a64f00"></path><path d="M1440 1160.88C1550.365 1167.2069999999999 1637.339 1067.5140000000001 1716.708 990.566 1784.768 924.5830000000001 1820.432 837.933 1861.324 752.412 1902.999 665.253 1970.688 581.293 1958.208 485.493 1945.695 389.44100000000003 1856.511 327.158 1796.064 251.469 1732.769 172.21499999999997 1687.732 72.85000000000002 1595.3029999999999 31.086000000000013 1497.806-12.967999999999961 1386.304-0.58299999999997 1281.081 18.773000000000025 1166.504 39.85000000000002 1030.25 51.66199999999998 963.688 147.27300000000002 897.037 243.012 964.923 373.937 953.034 489.985 941.815 599.491 847.577 709.578 895.951 808.4590000000001 944.473 907.643 1090.282 899.938 1182.955 959.969 1276.114 1020.315 1329.185 1154.528 1440 1160.88" fill="#ffa959"></path></g><defs><mask id="SvgjsMask1041"><rect width="1440" height="560" fill="#ffffff"></rect></mask></defs></svg>